{
  "accessors": [
    {
      "bufferView": 1,
      "componentType": 5126,
      "count": 6317,
      "max": [
        52.819633483886719,
        628.50323486328125,
        853.83416748046875
      ],
      "min": [
        -52.819637298583984,
        -853.833984375,
        -853.8336181640625
      ],
      "type": "VEC3"
    },
    {
      "bufferView": 1,
      "byteOffset": 75804,
      "componentType": 5126,
      "count": 6317,
      "max": [
        1,
        1,
        1
      ],
      "min": [
        -1,
        -1,
        -1
      ],
      "type": "VEC3"
    },
    {
      "bufferView": 2,
      "componentType": 5126,
      "count": 6317,
      "max": [
        1,
        1,
        1,
        1
      ],
      "min": [
        -1,
        -1,
        -0.99991494417190552,
        -1
      ],
      "type": "VEC4"
    },
    {
      "bufferView": 0,
      "componentType": 5125,
      "count": 35808,
      "max": [
        6316
      ],
      "min": [
        0
      ],
      "type": "SCALAR"
    },
    {
      "bufferView": 1,
      "byteOffset": 151608,
      "componentType": 5126,
      "count": 1730,
      "max": [
        52.780303955078125,
        853.8336181640625,
        534.091552734375
      ],
      "min": [
        -52.780303955078125,
        479.9759521484375,
        -533.853515625
      ],
      "type": "VEC3"
    },
    {
      "bufferView": 1,
      "byteOffset": 172368,
      "componentType": 5126,
      "count": 1730,
      "max": [
        1,
        1,
        0.95660215616226196
      ],
      "min": [
        -1,
        -1,
        -0.95785003900527954
      ],
      "type": "VEC3"
    },
    {
      "bufferView": 2,
      "byteOffset": 101072,
      "componentType": 5126,
      "count": 1730,
      "max": [
        0.99996989965438843,
        0.99945241212844849,
        0.65513837337493896,
        1
      ],
      "min": [
        -0.99999737739562988,
        -0.99828195571899414,
        -1,
        -1
      ],
      "type": "VEC4"
    },
    {
      "bufferView": 0,
      "byteOffset": 143232,
      "componentType": 5125,
      "count": 9792,
      "max": [
        1729
      ],
      "min": [
        0
      ],
      "type": "SCALAR"
    }
  ],
  "asset": {
    "generator": "Sketchfab (OSG glTF plugin)",
    "version": "2.0"
  },
  "bufferViews": [
    {
      "buffer": 0,
      "byteLength": 182400,
      "byteOffset": 0,
      "name": "floatBufferViews",
      "target": 34963
    },
    {
      "buffer": 0,
      "byteLength": 193128,
      "byteOffset": 182400,
      "byteStride": 12,
      "name": "floatBufferViews",
      "target": 34962
    },
    {
      "buffer": 0,
      "byteLength": 128752,
      "byteOffset": 375528,
      "byteStride": 16,
      "name": "floatBufferViews",
      "target": 34962
    }
  ],
  "buffers": [
    {
      "byteLength": 504280,
      "uri": "scene.bin"
    }
  ],
  "materials": [
    {
      "doubleSided": true,
      "emissiveFactor": [
        0,
        0,
        0
      ],
      "name": "blinn2",
      "pbrMetallicRoughness": {
        "baseColorFactor": [
          0.068478800000000006,
          0.072272100000000006,
          0.076185199999999995,
          1
        ],
        "metallicFactor": 0,
        "roughnessFactor": 0.59999999999999998
      }
    },
    {
      "doubleSided": true,
      "emissiveFactor": [
        0.94730653669999998,
        0.33245153630000002,
        0.012983032300000001
      ],
      "name": "blinn1",
      "pbrMetallicRoughness": {
        "baseColorFactor": [
          0.95596300000000001,
          0.33245799999999998,
          0.0129832,
          1
        ],
        "metallicFactor": 1,
        "roughnessFactor": 0
      }
    }
  ],
  "meshes": [
    {
      "name": "pPipe3_blinn2_0",
      "primitives": [
        {
          "attributes": {
            "NORMAL": 1,
            "POSITION": 0,
            "TANGENT": 2
          },
          "indices": 3,
          "material": 0,
          "mode": 4
        }
      ]
    },
    {
      "name": "pPipe3_blinn1_0",
      "primitives": [
        {
          "attributes": {
            "NORMAL": 5,
            "POSITION": 4,
            "TANGENT": 6
          },
          "indices": 7,
          "material": 1,
          "mode": 4
        }
      ]
    }
  ],
  "nodes": [
    {
      "children": [
        1
      ],
      "name": "RootNode (gltf orientation matrix)",
      "rotation": [
        -0.70710678118654746,
        -0,
        -0,
        0.70710678118654757
      ]
    },
    {
      "children": [
        2
      ],
      "matrix": [
        0,
        -1,
        0,
        0,
        1,
        0,
        0,
        0,
        0,
        0,
        1,
        0,
        -1.2035399777232669e-05,
        1.1158000233990606e-05,
        0,
        1
      ],
      "name": "RootNode (model correction matrix)"
    },
    {
      "children": [
        3
      ],
      "matrix": [
        1,
        0,
        0,
        0,
        0,
        0,
        1,
        0,
        0,
        -1,
        0,
        0,
        0,
        0,
        0,
        1
      ],
      "name": "3c42934f7a454cf9b3140a16f0d05201.fbx"
    },
    {
      "children": [
        4,
        6
      ],
      "name": "RootNode"
    },
    {
      "children": [
        5
      ],
      "matrix": [
        0.0099999997764825821,
        0,
        0,
        0,
        0,
        0.0099999997764825821,
        0,
        0,
        0,
        0,
        0.0099999997764825821,
        0,
        -100.09999847412109,
        -2.8535308837890625,
        0.19516550004482269,
        1
      ],
      "name": "left"
    },
    {
      "name": ""
    },
    {
      "children": [
        7
      ],
      "matrix": [
        0.0099999997764825821,
        0,
        0,
        0,
        0,
        0.0099999997764825821,
        0,
        0,
        0,
        0,
        0.0099999997764825821,
        0,
        0,
        0,
        0,
        1
      ],
      "name": "pPipe3"
    },
    {
      "children": [
        8,
        9
      ],
      "name": "Geode"
    },
    {
      "mesh": 0,
      "name": "pPipe3_blinn2_0"
    },
    {
      "mesh": 1,
      "name": "pPipe3_blinn1_0"
    }
  ],
  "scene": 0,
  "scenes": [
    {
      "name": "OSG_Scene",
      "nodes": [
        0
      ]
    }
  ]
}

